# xmcd
#
# Track frame offsets: 
#        150
#        19021
#        39043
#        55960
#        70969
#        83136
#        104601
#        124266
#        142195
#        156688
#        175890
#        196053
#        208574
#
# Disc length: 3025 seconds
#
# Revision: 1
# Processed by: cddbd v1.5.2PL0 Copyright (c) Steve Scherf et al.
# Submitted via: ExactAudioCopy v0.90b4
#
DISCID=ba0bcf0d
DTITLE=The Be Good Tanyas - Hello Love
DYEAR=2006
DGENRE=Country
TTITLE0=Human Thing
TTITLE1=For the Tumstiles
TTITLE2=A Thousand Tiny Pieces
TTITLE3=Ootischenia
TTITLE4=A Little Blues
TTITLE5=Scattered Leaves
TTITLE6=Hello Love
TTITLE7=Nobody Cares for Me
TTITLE8=Out of the wilderness
TTITLE9=Song for R
TTITLE10=What are They Doing in Heaven Today?
TTITLE11=Crow Waltz
TTITLE12=When Doves Cry
EXTD=
EXTT0=
EXTT1=
EXTT2=
EXTT3=
EXTT4=
EXTT5=
EXTT6=
EXTT7=
EXTT8=
EXTT9=
EXTT10=
EXTT11=
EXTT12=
PLAYORDER=
